<?xml version="1.0" standalone="no"?>
<!DOCTYPE svg PUBLIC "-//W3C//DTD SVG 20010904//EN"
 "http://www.w3.org/TR/2001/REC-SVG-20010904/DTD/svg10.dtd">
<svg version="1.0" xmlns="http://www.w3.org/2000/svg"
 width="791.000000pt" height="379.000000pt" viewBox="0 0 791.000000 379.000000"
 preserveAspectRatio="xMidYMid meet">
<metadata>
Created by potrace 1.16, written by Peter Selinger 2001-2019
</metadata>
<g transform="translate(0.000000,379.000000) scale(0.100000,-0.100000)"
fill="#000000" stroke="none">
<path d="M2181 3647 c-42 -13 -60 -53 -68 -147 -6 -66 11 -170 27 -170 4 0 10
-12 13 -28 3 -15 51 -92 107 -172 104 -147 165 -258 176 -317 3 -18 10 -33 15
-33 14 0 11 69 -7 161 -16 87 -81 300 -94 309 -16 11 -42 224 -38 316 l4 94
-51 -1 c-27 -1 -65 -6 -84 -12z"/>
<path d="M2496 3594 c-11 -29 -6 -111 12 -185 l17 -74 3 56 c4 73 19 87 97 91
l60 3 -21 20 c-40 38 -64 55 -79 55 -8 0 -15 4 -15 10 0 8 -50 40 -63 40 -3 0
-8 -7 -11 -16z"/>
<path d="M1931 3404 c-8 -25 -12 -71 -10 -117 4 -66 10 -87 52 -169 26 -51 47
-99 47 -106 0 -6 4 -12 9 -12 4 0 43 -55 86 -122 43 -68 81 -125 85 -128 4 -3
9 -14 12 -25 11 -37 53 -130 61 -133 4 -2 7 -22 7 -45 0 -23 4 -48 9 -56 14
-22 24 46 19 127 -3 55 -12 84 -50 162 -26 52 -78 138 -115 190 -38 52 -85
118 -105 145 -52 72 -79 147 -87 245 l-7 85 -13 -41z"/>
<path d="M2750 3340 c-1 -19 -1 -72 0 -117 1 -80 1 -82 -24 -89 -14 -3 -50 -4
-81 -2 -53 3 -56 2 -50 -19 29 -116 30 -323 1 -431 -16 -62 -7 -57 35 19 93
169 136 287 153 425 9 82 9 113 -1 159 -18 78 -32 101 -33 55z"/>
<path d="M3690 2940 c-178 -16 -323 -83 -445 -205 -45 -44 -90 -98 -100 -120
-11 -22 -26 -46 -33 -54 -7 -7 -16 -26 -19 -42 -3 -16 -9 -29 -12 -29 -17 0
-52 -153 -51 -220 0 -53 17 -151 28 -162 6 -6 12 -20 12 -31 0 -27 48 -121 82
-159 l29 -33 -6 59 c-4 33 -11 70 -15 82 -12 30 -11 229 0 284 44 202 91 308
173 387 80 78 111 93 187 93 64 0 67 -1 108 -43 48 -48 100 -144 109 -200 3
-20 10 -40 14 -43 20 -12 1 -414 -21 -455 -5 -9 -12 -34 -15 -55 -4 -22 -13
-52 -20 -69 -8 -16 -31 -68 -50 -115 -20 -47 -50 -109 -66 -139 -16 -30 -29
-60 -29 -67 0 -7 -4 -14 -9 -16 -6 -2 -103 -131 -146 -195 -5 -8 -39 -43 -74
-77 -91 -87 -103 -99 -131 -136 -14 -17 -56 -62 -95 -100 l-69 -68 39 -11 c22
-6 62 -8 90 -5 27 3 104 1 170 -5 319 -30 496 -39 615 -33 l125 7 -195 7
c-107 3 -215 11 -240 17 -25 5 -107 13 -182 17 l-138 6 0 54 c0 31 4 54 10 54
6 0 44 23 85 50 41 28 76 50 79 50 3 0 14 6 23 14 10 8 70 55 133 105 123 98
330 297 330 318 0 7 4 13 10 13 15 0 146 174 200 266 130 220 170 378 140 557
-9 59 -45 142 -80 187 l-20 25 10 -35 c13 -47 13 -159 -1 -199 l-11 -31 -89 0
c-103 0 -103 0 -113 101 -4 36 -14 78 -22 94 -8 15 -14 49 -14 76 0 44 3 49
25 55 14 3 57 4 95 2 l70 -4 -31 32 c-40 42 -149 105 -218 126 -74 23 -129 28
-231 18z m526 -562 c5 -7 10 -52 12 -100 4 -74 1 -95 -17 -133 -11 -24 -21
-49 -21 -55 0 -21 -92 -196 -141 -268 -27 -40 -49 -74 -49 -76 0 -2 -27 -31
-59 -65 -59 -60 -61 -61 -113 -61 -95 0 -98 3 -98 76 0 54 3 66 21 76 25 16
109 140 109 161 0 8 4 17 9 19 28 10 171 356 171 414 0 23 2 24 84 24 57 0 87
-4 92 -12z"/>
<path d="M1230 2783 c-19 -2 -39 -9 -44 -14 -6 -5 -23 -9 -40 -9 -36 0 -136
-31 -136 -42 0 -4 -9 -8 -21 -8 -38 0 -142 -63 -204 -123 -33 -33 -70 -66 -82
-74 -13 -8 -23 -20 -23 -25 0 -5 -11 -24 -24 -41 -70 -94 -126 -258 -126 -372
0 -113 62 -297 119 -354 11 -11 22 -28 25 -39 4 -11 13 -22 20 -25 11 -4 10
10 -1 76 -59 359 2 650 169 802 64 58 102 75 167 75 44 0 54 -5 98 -44 98 -88
142 -208 150 -407 7 -170 -8 -295 -53 -451 -19 -64 -34 -124 -34 -133 0 -8 -4
-15 -10 -15 -5 0 -10 -5 -10 -11 0 -21 -113 -236 -161 -304 -27 -39 -49 -77
-49 -83 0 -7 -6 -12 -14 -12 -8 0 -23 -14 -33 -30 -18 -28 -54 -70 -175 -206
-21 -22 -38 -43 -38 -45 0 -3 -25 -31 -55 -63 -31 -32 -53 -61 -50 -65 4 -3
106 -6 228 -7 122 0 269 -6 327 -13 101 -12 245 -10 383 7 l62 7 -110 9 c-60
4 -224 9 -362 9 l-253 0 0 53 c0 49 2 55 30 69 33 17 244 175 300 224 19 17
38 31 42 31 3 0 16 16 28 35 12 19 27 35 35 35 7 0 29 19 49 43 51 58 51 58
90 97 20 19 36 39 36 46 0 7 7 14 15 18 34 13 255 340 255 378 0 10 4 18 8 18
8 0 61 116 81 179 6 19 11 47 11 62 0 15 4 30 9 33 27 17 18 286 -10 286 -5 0
-9 11 -9 25 0 14 -4 25 -10 25 -5 0 -10 8 -10 18 0 9 -14 37 -30 62 l-30 45 0
-127 c0 -120 -1 -128 -19 -128 -11 0 -23 -4 -26 -10 -9 -15 -102 -12 -135 5
-22 11 -30 24 -35 57 -11 75 -27 138 -36 144 -13 8 -11 118 3 132 27 27 165 8
204 -29 13 -12 24 -20 24 -16 0 11 -75 77 -87 77 -7 0 -13 5 -13 10 0 14 -90
70 -112 70 -10 0 -18 5 -18 10 0 6 -11 10 -25 10 -14 0 -25 5 -25 10 0 6 -15
10 -34 10 -19 0 -36 4 -38 9 -4 11 -110 20 -158 14z m529 -590 c13 -45 13
-120 1 -183 -4 -25 -12 -63 -16 -85 -4 -22 -10 -42 -14 -45 -9 -7 -50 -110
-50 -126 0 -8 -4 -14 -10 -14 -5 0 -10 -9 -10 -19 0 -11 -4 -21 -9 -23 -8 -3
-84 -122 -105 -165 -6 -13 -17 -23 -23 -23 -7 0 -13 -4 -13 -9 0 -5 -13 -23
-29 -40 -28 -30 -32 -31 -110 -31 l-81 0 0 50 c0 41 7 60 35 103 19 28 35 57
35 64 0 7 4 13 10 13 23 0 170 347 170 402 0 14 4 28 8 30 5 2 15 30 23 63 17
67 24 71 126 74 52 1 52 1 62 -36z"/>
<path d="M7207 2618 c1 -45 2 -106 2 -135 1 -44 6 -58 33 -88 17 -20 59 -55
92 -77 34 -22 82 -61 109 -86 38 -38 47 -43 47 -26 0 11 7 30 16 42 13 19 24
22 93 22 46 0 82 -5 89 -12 7 -7 12 -39 12 -73 0 -79 -14 -93 -97 -97 l-61 -3
34 -85 c19 -47 39 -86 44 -88 6 -2 10 -12 10 -21 0 -49 29 -23 74 66 14 29 26
63 26 77 0 14 4 27 9 30 16 11 19 75 6 139 -14 69 -53 167 -65 167 -4 0 -10
13 -13 29 -8 40 -159 192 -227 229 -30 16 -72 33 -92 36 -20 4 -38 11 -40 16
-2 5 -25 12 -53 15 l-50 7 2 -84z m355 -135 c14 -13 18 -31 18 -88 l0 -73 -37
-17 c-44 -21 -156 -16 -180 8 -9 9 -17 42 -20 81 -5 60 -4 68 17 86 31 27 173
29 202 3z"/>
<path d="M5299 2680 c-8 -4 -41 -10 -74 -13 -65 -5 -208 -50 -213 -67 -2 -5
-11 -10 -21 -10 -42 0 -241 -162 -241 -196 0 -7 -7 -14 -15 -18 -8 -3 -15 -12
-15 -20 0 -7 -6 -16 -13 -19 -21 -8 -88 -152 -94 -200 -3 -23 -11 -48 -16 -55
-15 -19 -15 -185 0 -203 6 -8 16 -40 22 -71 5 -31 22 -80 36 -108 26 -52 94
-134 103 -126 3 3 -1 13 -9 22 -19 23 -21 518 -2 555 7 13 23 51 36 84 13 33
32 74 43 91 33 53 98 132 114 138 8 3 35 17 59 31 62 35 135 35 176 -1 17 -14
37 -31 45 -38 24 -18 77 -125 97 -196 15 -54 18 -100 17 -263 -1 -133 -5 -202
-13 -210 -6 -6 -11 -27 -11 -47 0 -20 -4 -40 -8 -45 -5 -6 -23 -53 -41 -105
-38 -110 -146 -332 -178 -368 -12 -13 -25 -33 -28 -43 -4 -11 -16 -30 -28 -43
-56 -59 -127 -146 -127 -155 0 -6 -4 -11 -9 -11 -4 0 -39 -33 -78 -72 -209
-219 -212 -223 -199 -230 7 -4 87 -10 177 -12 90 -3 223 -13 294 -22 147 -20
488 -25 518 -7 14 7 -15 12 -115 17 -73 3 -173 9 -223 12 -49 3 -108 5 -130 6
-22 0 -86 2 -142 5 l-103 5 0 51 0 52 70 43 c39 24 70 47 70 52 0 4 12 11 27
15 14 3 36 15 47 25 12 10 62 51 111 91 82 66 345 317 345 330 0 3 20 27 45
54 144 154 308 478 330 652 14 106 -29 289 -82 353 -7 8 -19 24 -27 35 -15 20
-15 20 -9 -3 3 -12 9 -25 14 -28 5 -3 9 -47 9 -98 0 -126 -9 -136 -125 -136
-83 0 -85 0 -100 30 -8 16 -15 52 -15 80 0 28 -7 67 -15 87 -18 43 -20 124 -3
141 25 25 159 8 203 -25 11 -9 -6 10 -38 41 -32 31 -64 56 -72 56 -8 0 -15 4
-15 10 0 13 -94 60 -120 60 -11 0 -20 5 -20 10 0 6 -15 10 -33 10 -18 0 -37 4
-42 9 -13 12 -128 21 -146 11z m509 -582 c21 -21 15 -186 -9 -264 -53 -170
-215 -431 -310 -497 -24 -17 -102 -23 -146 -11 -20 6 -23 13 -23 60 0 30 4 54
8 54 16 0 133 189 183 295 28 59 67 158 86 219 55 173 41 156 126 156 43 0 78
-5 85 -12z"/>
<path d="M6930 2638 l-65 -28 -1 -123 c-1 -92 -6 -139 -22 -192 -19 -63 -19
-72 -6 -93 19 -28 58 -46 153 -67 80 -19 149 -45 172 -66 8 -8 24 -19 34 -25
11 -6 34 -37 50 -70 17 -32 33 -60 38 -62 4 -2 7 -19 7 -37 0 -19 5 -37 10
-40 6 -3 10 -19 10 -36 0 -21 13 -42 48 -79 53 -55 65 -59 102 -31 18 15 21
22 13 33 -23 28 -62 106 -92 184 -57 149 -126 234 -261 320 -89 58 -94 72 -98
247 -2 89 -9 158 -16 171 l-12 23 -64 -29z"/>
<path d="M6650 2428 c-87 -100 -83 -91 -59 -133 20 -33 21 -46 17 -147 -4 -66
-10 -113 -17 -117 -6 -4 -14 -30 -17 -57 -6 -48 -5 -51 30 -81 23 -21 62 -40
108 -53 180 -52 229 -94 244 -211 3 -30 15 -74 25 -98 22 -50 19 -50 161 1
l86 32 -49 44 c-44 39 -52 53 -75 130 -14 48 -33 104 -42 125 -32 76 -114 124
-274 158 -70 15 -128 46 -146 79 -22 42 -9 190 26 293 17 48 30 87 29 87 -1 0
-22 -24 -47 -52z"/>
<path d="M2612 2294 c-12 -8 -22 -22 -22 -30 0 -8 -4 -14 -10 -14 -20 0 -9
-29 19 -49 38 -28 68 -26 114 4 44 30 46 43 11 79 -31 30 -77 35 -112 10z"/>
<path d="M6322 1893 c-57 -140 -102 -275 -102 -304 0 -16 -4 -29 -10 -29 -5 0
-10 -6 -10 -13 0 -22 -81 -301 -96 -330 l-15 -27 45 34 c25 19 55 37 66 41 11
3 20 11 20 16 0 5 8 9 18 9 9 0 51 11 92 24 73 24 74 24 33 25 -67 2 -73 7
-72 65 0 28 4 60 8 71 6 14 2 28 -10 44 -23 29 -26 127 -5 156 17 24 140 34
186 15 29 -12 30 -14 30 -83 0 -43 -5 -77 -13 -86 -9 -12 -11 -38 -7 -92 l5
-76 145 36 145 36 -17 83 c-25 126 -48 151 -181 192 -40 12 -85 26 -100 32
-34 13 -107 79 -107 96 0 7 -5 12 -11 12 -8 0 -10 21 -7 65 2 36 3 65 3 65 -1
0 -16 -35 -33 -77z"/>
<path d="M2363 1923 c-24 -2 -43 -8 -43 -14 0 -5 -8 -9 -19 -9 -16 0 -111 -37
-111 -43 0 -2 35 -3 78 -2 l77 0 3 -52 c2 -41 -2 -60 -21 -90 -14 -21 -32 -62
-42 -91 -10 -30 -25 -57 -37 -63 -20 -11 -20 -17 -14 -114 7 -115 26 -189 62
-253 20 -33 24 -54 22 -95 l-3 -52 -75 0 c-41 0 -84 4 -95 9 -13 5 -9 -1 10
-17 48 -41 148 -87 241 -110 85 -20 88 -20 153 -4 36 10 68 22 69 27 2 6 12
10 23 10 10 0 35 16 56 36 20 20 47 43 60 51 13 8 23 23 23 33 0 10 6 20 13
23 17 6 87 139 87 164 0 11 8 35 17 54 23 45 23 199 1 249 -9 19 -19 52 -23
73 -3 20 -10 37 -15 37 -6 0 -10 11 -10 24 0 41 -68 130 -124 164 -99 59 -181
71 -363 55z m323 -70 c39 -42 70 -100 100 -188 25 -71 28 -95 28 -215 1 -118
-2 -144 -24 -210 -14 -41 -28 -76 -32 -78 -5 -2 -8 -10 -8 -18 0 -8 -3 -14 -7
-14 -5 0 -21 -13 -38 -28 -58 -54 -77 -62 -141 -62 -58 0 -62 1 -91 38 -71 88
-104 189 -118 359 -6 66 -3 98 15 170 30 124 57 180 110 230 44 42 47 43 113
43 61 0 70 -3 93 -27z"/>
<path d="M2035 1695 c-8 -14 -22 -36 -30 -50 -8 -13 -15 -33 -15 -45 0 -11 -4
-20 -8 -20 -16 0 -32 -77 -32 -156 0 -83 14 -154 30 -154 6 0 10 -7 10 -15 0
-28 37 -90 84 -141 25 -27 45 -46 46 -42 0 4 -6 13 -13 20 -71 70 -113 178
-103 260 10 87 18 133 25 138 4 3 12 17 18 33 7 15 21 27 30 28 14 0 12 3 -6
10 -22 9 -23 13 -19 84 2 41 2 75 1 75 -1 0 -9 -11 -18 -25z"/>
<path d="M6580 424 c-19 -13 -44 -31 -55 -41 -11 -10 -35 -25 -52 -32 -18 -7
-33 -17 -33 -21 0 -10 98 -60 117 -60 7 0 17 9 23 19 11 21 43 152 38 156 -2
1 -19 -9 -38 -21z"/>
</g>
</svg>
